<svg width="30" height="30" viewBox="0 0 30 30" fill="none" xmlns="http://www.w3.org/2000/svg">
<circle cx="15" cy="15" r="14.5" fill="#FFDA82" stroke="black"/>
<path fill-rule="evenodd" clip-rule="evenodd" d="M15 7C15.8837 7 16.6 7.71634 16.6 8.6V13.4H21.4C22.2837 13.4 23 14.1163 23 15C23 15.8837 22.2837 16.6 21.4 16.6H16.6V21.4C16.6 22.2837 15.8837 23 15 23C14.1163 23 13.4 22.2837 13.4 21.4L13.4 16.6H8.6C7.71634 16.6 7 15.8837 7 15C7 14.1163 7.71634 13.4 8.6 13.4H13.4L13.4 8.6C13.4 7.71634 14.1163 7 15 7Z" fill="white" stroke="black" stroke-width="0.2" stroke-linecap="round"/>
</svg>
