<svg width="26" height="26" viewBox="0 0 26 26" fill="none" xmlns="http://www.w3.org/2000/svg">
<path d="M12.7292 10.681L13.0816 11.0313L13.434 10.681L23.1048 1.07055C23.6527 0.526056 24.5423 0.526056 25.0902 1.07055C25.6364 1.61332 25.6364 2.49202 25.0902 3.03479L15.4195 12.6453L15.0626 12.9999L15.4195 13.3546L25.0904 22.9652C25.6365 23.508 25.6365 24.3867 25.0904 24.9295C24.5425 25.4739 23.6528 25.4739 23.1049 24.9295L13.434 15.3188L13.0816 14.9686L12.7292 15.3188L2.89506 25.0916C2.34716 25.6361 1.45754 25.6361 0.909631 25.0916C0.363456 24.5489 0.363457 23.6702 0.909631 23.1274L10.7437 13.3546L11.1006 12.9999L10.7437 12.6453L0.90976 2.87261C0.363585 2.32984 0.363585 1.45114 0.90976 0.908369C1.45767 0.363877 2.34729 0.363877 2.89519 0.908369L12.7292 10.681Z" fill="white" stroke="black" stroke-linecap="round"/>
</svg>
