<svg width="42" height="51" viewBox="0 0 42 51" fill="none" xmlns="http://www.w3.org/2000/svg">
<path d="M41.2259 48.4013L38.1932 14.3486C38.1104 13.4186 37.3374 12.7063 36.4115 12.7063H30.1574V9.86237C30.1574 4.56211 25.8809 0.25 20.6243 0.25C15.3679 0.25 11.0918 4.56211 11.0918 9.86237V12.7063H4.83348C3.90757 12.7063 3.13455 13.4186 3.05178 14.3486L0.00715276 48.5352C-0.0376878 49.0398 0.129749 49.5397 0.468677 49.9135C0.807605 50.2872 1.28678 50.5 1.78885 50.5H39.4564C39.4578 50.5 39.4597 50.5 39.4611 50.5C40.4493 50.5 41.25 49.6925 41.25 48.6964C41.2498 48.5961 41.2417 48.4973 41.2259 48.4013ZM14.6695 9.86237C14.6695 6.55115 17.3409 3.85725 20.6245 3.85725C23.9084 3.85725 26.58 6.55115 26.58 9.86237V12.7063H14.6695V9.86237ZM3.74562 46.893L6.46897 16.3136H11.0918V19.5389C11.0918 20.535 11.8925 21.3426 12.8807 21.3426C13.8689 21.3426 14.6695 20.535 14.6695 19.5389V16.3136H26.58V19.5389C26.58 20.535 27.3807 21.3426 28.3688 21.3426C29.357 21.3426 30.1577 20.535 30.1577 19.5389V16.3136H34.7763L37.4996 46.893H3.74562Z" fill="black"/>
</svg>
