<svg width="88" height="52" viewBox="0 0 88 52" fill="none" xmlns="http://www.w3.org/2000/svg">
<path d="M23.8327 44.4667H16.4993C15.5978 44.4667 14.866 43.7349 14.866 42.8333C14.866 41.9318 15.5978 41.2 16.4993 41.2H23.8327C24.7342 41.2 25.466 41.9318 25.466 42.8333C25.466 43.7349 24.7342 44.4667 23.8327 44.4667Z" fill="white" stroke="black" stroke-width="0.4"/>
<path d="M81.8951 41.2001H82.061L82.0916 41.0369L84.563 27.8663L84.5665 27.8475L84.5664 27.8284C84.5328 20.9762 78.6839 15.1334 71.5001 15.1334H59.4624H59.3027L59.2674 15.2891L53.4337 40.9557L53.3782 41.2001H53.6287H64.1667C65.0683 41.2001 65.8001 41.9318 65.8001 42.8334C65.8001 43.7349 65.0683 44.4667 64.1667 44.4667H51.3334C50.8367 44.4667 50.3663 44.2412 50.056 43.8526L50.0555 43.852C49.7456 43.467 49.628 42.9577 49.739 42.4748L49.7391 42.4744L56.4051 13.1411L56.4051 13.141C56.5751 12.3924 57.2348 11.8667 57.9994 11.8667H71.5001C80.4805 11.8667 87.7901 19.1702 87.8 28.1484L85.0204 43.1342C85.0204 43.1342 85.0204 43.1342 85.0204 43.1342C84.8767 43.9083 84.2041 44.4667 83.4167 44.4667H78.8334C77.9318 44.4667 77.2001 43.7349 77.2001 42.8334C77.2001 41.9318 77.9318 41.2001 78.8334 41.2001H81.8951Z" fill="white" stroke="black" stroke-width="0.4"/>
<path d="M71.5006 51.8001C66.5584 51.8001 62.534 47.7792 62.534 42.8334C62.534 37.8876 66.5584 33.8667 71.5006 33.8667C76.4429 33.8667 80.4673 37.8876 80.4673 42.8334C80.4673 47.7792 76.4429 51.8001 71.5006 51.8001ZM71.5006 37.1334C68.3579 37.1334 65.8006 39.6906 65.8006 42.8334C65.8006 45.9762 68.3579 48.5334 71.5006 48.5334C74.6434 48.5334 77.2006 45.9762 77.2006 42.8334C77.2006 39.6906 74.6434 37.1334 71.5006 37.1334Z" fill="white" stroke="black" stroke-width="0.4"/>
<path d="M31.1667 51.8001C26.2244 51.8001 22.2 47.7792 22.2 42.8334C22.2 37.8876 26.2244 33.8667 31.1667 33.8667C36.1089 33.8667 40.1333 37.8876 40.1333 42.8334C40.1333 47.7792 36.1089 51.8001 31.1667 51.8001ZM31.1667 37.1334C28.0239 37.1334 25.4667 39.6906 25.4667 42.8334C25.4667 45.9762 28.0239 48.5334 31.1667 48.5334C34.3095 48.5334 36.8667 45.9762 36.8667 42.8334C36.8667 39.6906 34.3095 37.1334 31.1667 37.1334Z" fill="white" stroke="black" stroke-width="0.4"/>
<path d="M23.834 11.4667H9.16732C8.26577 11.4667 7.53398 10.7349 7.53398 9.83333C7.53398 8.93179 8.26577 8.2 9.16732 8.2H23.834C24.7355 8.2 25.4673 8.93179 25.4673 9.83333C25.4673 10.7349 24.7355 11.4667 23.834 11.4667Z" fill="white" stroke="black" stroke-width="0.4"/>
<path d="M23.8327 22.4667H5.49935C4.59781 22.4667 3.86602 21.7349 3.86602 20.8333C3.86602 19.9318 4.59781 19.2 5.49935 19.2H23.8327C24.7342 19.2 25.466 19.9318 25.466 20.8333C25.466 21.7349 24.7342 22.4667 23.8327 22.4667Z" fill="white" stroke="black" stroke-width="0.4"/>
<path d="M23.8333 33.4667H1.83333C0.93179 33.4667 0.2 32.7349 0.2 31.8333C0.2 30.9318 0.93179 30.2 1.83333 30.2H23.8333C24.7349 30.2 25.4667 30.9318 25.4667 31.8333C25.4667 32.7349 24.7349 33.4667 23.8333 33.4667Z" fill="white" stroke="black" stroke-width="0.4"/>
<path d="M49.8697 41.2001H50.0293L50.0647 41.0444L58.3954 4.37772L58.4509 4.13341H58.2004H16.4993C15.5978 4.13341 14.866 3.40162 14.866 2.50008C14.866 1.59854 15.5978 0.866748 16.4993 0.866748H60.4994C60.9961 0.866748 61.4665 1.09223 61.7767 1.48086L61.7772 1.4815C62.0872 1.86647 62.2047 2.37575 62.0938 2.85863L62.0937 2.85909L52.927 43.1924L52.927 43.1924C52.757 43.9408 52.0938 44.4667 51.3327 44.4667H38.4993C37.5978 44.4667 36.866 43.7349 36.866 42.8334C36.866 41.9318 37.5978 41.2001 38.4993 41.2001H49.8697Z" fill="white" stroke="black" stroke-width="0.4"/>
</svg>
