<svg width="61" height="75" viewBox="0 0 61 75" fill="none" xmlns="http://www.w3.org/2000/svg">
<path d="M60.4647 71.3396L60.4653 71.347L60.4665 71.3542C60.4878 71.4842 60.4989 71.6185 60.4992 71.7551C60.499 73.1069 59.4127 74.2 58.0756 74.2H58.0755H58.0754H58.0754H58.0753H58.0753H58.0752H58.0751H58.0751H58.075H58.0749H58.0749H58.0748H58.0747H58.0747H58.0746H58.0745H58.0745H58.0744H58.0743H58.0743H58.0742H58.0741H58.0741H58.074H58.0739H58.0739H58.0738H58.0737H58.0736H58.0736H58.0735H58.0734H58.0734H58.0733H58.0732H58.0732H58.0731H58.073H58.0729H58.0729H58.0728H58.0727H58.0727H58.0726H58.0725H58.0724H58.0724H58.0723H58.0722H58.0722H58.0721H58.072H58.0719H58.0719H58.0718H58.0717H58.0717H58.0716H58.0715H58.0714H58.0714H58.0713H58.0712H58.0712H58.0711H58.071H58.0709H58.0709H58.0708H58.0707H58.0707H58.0706H58.0705H58.0704H58.0704H58.0703H58.0702H58.0702H58.0701H58.07H58.07H58.0699H58.0698H58.0698H58.0697H58.0696H58.0696H58.0695H58.0694H58.0694H58.0693H58.0692H58.0692H58.0691H58.069H58.069H58.0689H58.0688H58.0688H58.0687H58.0687H58.0686H2.82287C2.14321 74.2 1.49414 73.9119 1.03476 73.4053C0.575325 72.8988 0.348077 72.2207 0.408921 71.5361L4.87438 21.3956L4.67516 21.3779L4.87438 21.3956C4.9867 20.1336 6.03522 19.1692 7.28832 19.1692H16.4673H16.6673V18.9692V14.7981C16.6673 7.13326 22.8509 0.899951 30.4482 0.899951C38.0458 0.899951 44.2301 7.13327 44.2301 14.7981V18.9692V19.1692H44.4301H53.6028C54.8559 19.1692 55.9044 20.1336 56.0167 21.3956L60.4647 71.3396ZM39.1832 19.1692H39.3832V18.9692V14.7981C39.3832 9.83275 35.3769 5.79059 30.4485 5.79059C25.5205 5.79059 21.5146 9.83277 21.5146 14.7981V18.9692V19.1692H21.7146H39.1832ZM5.49358 69.0919L5.47419 69.3097H5.69279H55.1986H55.4173L55.3979 69.0919L51.4036 24.2421L51.3874 24.0599H51.2044H44.4305H44.2305V24.2599V28.9904C44.2305 30.3424 43.1441 31.4357 41.8068 31.4357C40.4695 31.4357 39.3832 30.3424 39.3832 28.9904V24.2599V24.0599H39.1832H21.7146H21.5146V24.2599V28.9904C21.5146 30.3424 20.4282 31.4357 19.0909 31.4357C17.7536 31.4357 16.6673 30.3424 16.6673 28.9904V24.2599V24.0599H16.4673H9.68704H9.50406L9.48783 24.2421L5.49358 69.0919Z" fill="white" stroke="black" stroke-width="0.4"/>
</svg>
