<svg width="88" height="88" viewBox="0 0 88 88" fill="none" xmlns="http://www.w3.org/2000/svg">
<path d="M59.5561 51.9305L59.5562 51.9306C60.9743 52.9927 61.2628 55.004 60.1978 56.4186L60.197 56.4196C59.5686 57.2659 58.6072 57.7056 57.6275 57.7056C56.957 57.7056 56.2836 57.4972 55.7059 57.064L42.0732 46.8393L42.0727 46.839C41.2649 46.2363 40.7898 45.2836 40.7898 44.2727V23.8233C40.7898 22.049 42.2238 20.615 43.9981 20.615C45.7724 20.615 47.2064 22.049 47.2064 23.8233V42.5684V42.6684L47.2864 42.7284L59.5561 51.9305Z" fill="white" stroke="black" stroke-width="0.4"/>
<path d="M0.2 44C0.2 19.8474 19.8474 0.2 44 0.2C68.1526 0.2 87.8 19.8474 87.8 44C87.8 68.1526 68.1526 87.8 44 87.8C19.8474 87.8 0.2 68.1526 0.2 44ZM6.61639 44C6.61639 64.6108 23.3892 81.3836 44 81.3836C64.6108 81.3836 81.3836 64.6108 81.3836 44C81.3836 23.3892 64.6143 6.61639 44 6.61639C23.3892 6.61639 6.61639 23.3892 6.61639 44Z" fill="white" stroke="black" stroke-width="0.4"/>
</svg>
