<svg width="26" height="26" viewBox="0 0 26 26" fill="none" xmlns="http://www.w3.org/2000/svg">
<path d="M25.5748 7.76742L25.5747 7.76742L25.5749 7.77181C25.6537 9.11845 25.6541 9.55663 25.6569 12.9769L25.6569 13.0204C25.6569 13.0204 25.6569 13.0204 25.6569 13.0205C25.6569 16.4806 25.6385 16.911 25.5777 18.2717L25.5776 18.2742C25.5566 19.3238 25.3591 20.3579 24.9906 21.3387C24.3364 23.0236 23.0044 24.3569 21.3182 25.0111C20.3374 25.3796 19.3019 25.5771 18.2551 25.5982V25.5981L18.2513 25.5983C16.9018 25.6774 16.4614 25.6775 13.0013 25.6775C9.5425 25.6775 9.11206 25.6591 7.7499 25.5982L7.74864 25.5982C6.6977 25.5646 5.662 25.3488 4.68642 24.9675L4.6861 24.9674C2.99841 24.3146 1.66631 22.9813 1.01196 21.2963C0.643493 20.3141 0.445939 19.2799 0.424919 18.2317L0.424993 18.2317L0.424768 18.2279C0.345637 16.877 0.345605 16.438 0.345605 12.9779C0.345605 9.51911 0.364016 9.08867 0.424839 7.72651L0.424873 7.72651L0.424921 7.72392C0.444537 6.67726 0.643474 5.64178 1.01195 4.6623C1.66479 2.97615 2.99812 1.64282 4.68427 0.989976C5.66366 0.621534 6.69923 0.423951 7.74616 0.401527L7.74617 0.401592L7.74977 0.401384C9.09929 0.323663 9.53973 0.323633 12.9999 0.323633C16.4587 0.323633 16.8891 0.340629 18.2498 0.40145L18.2498 0.401477L18.2521 0.401527C19.3005 0.423952 20.3361 0.621544 21.3155 0.989994C23.0016 1.64285 24.3336 2.97623 24.9879 4.66255C25.3632 5.6543 25.5594 6.70652 25.5748 7.76742ZM6.34211 12.9708C6.34211 16.6442 9.31796 19.62 12.9914 19.62C16.6619 19.62 19.6406 16.6442 19.6406 12.9708C19.6406 9.29738 16.6619 6.32155 12.9914 6.32155C9.31796 6.32155 6.34211 9.2974 6.34211 12.9708ZM18.1741 6.1793C18.1741 7.0788 18.9002 7.80647 19.8013 7.80647C20.6995 7.80647 21.427 7.0788 21.427 6.1793C21.427 5.2798 20.6995 4.55213 19.8013 4.55213C18.9002 4.55213 18.1741 5.2798 18.1741 6.1793Z" fill="white" stroke="black" stroke-width="0.2"/>
<path d="M17.1458 12.9701C17.1458 15.2644 15.2859 17.1243 12.9916 17.1243C10.6972 17.1243 8.8373 15.2644 8.8373 12.9701C8.8373 10.6757 10.6972 8.81582 12.9916 8.81582C15.2859 8.81582 17.1458 10.6757 17.1458 12.9701Z" fill="white" stroke="black" stroke-width="0.2"/>
</svg>
