<svg width="34" height="34" viewBox="0 0 34 34" fill="none" xmlns="http://www.w3.org/2000/svg">
<path d="M30.2603 6.53628L30.2601 6.53625L30.2592 6.54203C30.164 7.14803 29.8617 8.0568 29.4572 9.08575C29.0536 10.1123 28.5515 11.2508 28.061 12.313C27.5706 13.375 27.0922 14.36 26.7363 15.0793C26.5584 15.439 26.4111 15.7322 26.3083 15.9354C26.2743 16.0025 26.2452 16.0598 26.2214 16.1065L26.2156 16.0983L26.1447 16.2561C25.9846 16.6127 25.8624 16.8984 25.8448 17.2002C25.8268 17.5068 25.9165 17.8177 26.1479 18.2307C26.3124 18.5473 26.6565 19.0136 27.0415 19.5352L27.0643 19.566C27.4621 20.1051 27.9055 20.7075 28.2606 21.2868L28.2606 21.2868L28.2618 21.2886C28.9194 22.311 29.4948 23.2524 29.9399 24.0856C30.3854 24.9196 30.6971 25.6395 30.8319 26.2206C30.955 26.8058 30.9042 27.2247 30.7367 27.4935C30.5728 27.7566 30.2826 27.8981 29.869 27.8981H26.806C26.2743 27.8981 25.9228 27.6127 25.4348 26.9361C25.2375 26.6625 25.0216 26.3306 24.7644 25.9349C24.7037 25.8417 24.6408 25.7448 24.5752 25.6444C24.2324 25.1192 23.8206 24.4987 23.3002 23.7789L23.2991 23.7775C22.3882 22.5642 21.7328 21.8718 21.2444 21.4822C20.754 21.091 20.4246 20.9992 20.1688 20.9992C20.0098 20.9992 19.8678 21.0147 19.7463 21.0634C19.6213 21.1135 19.5231 21.1968 19.4503 21.3219C19.3793 21.4438 19.3343 21.6021 19.3064 21.8011C19.2784 22.0008 19.2667 22.2481 19.2667 22.5524V26.3516C19.2667 26.8724 19.2046 27.2438 18.9352 27.4938C18.6619 27.7476 18.1501 27.9 17.1799 27.9C13.9885 27.9 10.4504 25.2165 7.92542 20.204L7.92497 20.2031C6.02899 16.5285 4.82224 13.3027 4.08964 10.8563C3.35592 8.40621 3.1 6.74524 3.1 6.19812C3.1 5.89037 3.14379 5.61713 3.27901 5.42224C3.4089 5.23502 3.6365 5.10193 4.05078 5.10193H7.11369C7.47999 5.10193 7.71786 5.21038 7.90364 5.44703C8.09719 5.69357 8.24002 6.0861 8.38602 6.67254C9.13705 9.69651 10.1454 12.5301 11.097 14.6092C11.5726 15.6483 12.0353 16.502 12.4462 17.0975C12.6515 17.3949 12.8461 17.6313 13.0254 17.7946C13.201 17.9544 13.3781 18.059 13.5469 18.059C13.6545 18.059 13.7601 18.042 13.8538 17.9835C13.9484 17.9245 14.0188 17.8308 14.0708 17.7007C14.1722 17.4475 14.2156 17.0252 14.2156 16.3435V10.1055H14.2157L14.2156 10.1016C14.1584 8.64887 13.8502 7.85636 13.553 7.29713C13.4832 7.16594 13.4144 7.04803 13.3508 6.93926L13.3402 6.92099C13.2733 6.80645 13.2132 6.70279 13.1623 6.60088C13.0614 6.39914 12.9986 6.20867 12.9986 5.97395C12.9986 5.75526 13.0664 5.53289 13.1869 5.36761C13.3062 5.20386 13.4734 5.1 13.6783 5.1H18.4934C18.6437 5.1 18.762 5.1277 18.8561 5.17938C18.9494 5.23063 19.0255 5.30909 19.0864 5.42192C19.2112 5.65299 19.2681 6.02044 19.2681 6.55755V14.9502C19.2681 15.4084 19.3399 15.7282 19.444 15.9375C19.5462 16.1429 19.6921 16.2618 19.8446 16.2618C20.0723 16.2618 20.2739 16.1675 20.5042 15.9549C20.7315 15.745 20.9963 15.4112 21.3525 14.9158L21.3526 14.9159L21.3552 14.9118C22.4648 13.1995 23.4092 11.0265 24.0755 9.28495C24.4089 8.41351 24.6731 7.64877 24.854 7.10181C24.9445 6.82832 25.0142 6.60922 25.0612 6.4584C25.0848 6.38299 25.1027 6.32465 25.1147 6.28511L25.1283 6.24011L25.1317 6.22859L25.1325 6.22601L25.1326 6.22565L25.1327 6.22534C25.2285 5.91906 25.3606 5.63702 25.5561 5.43239C25.7487 5.23089 26.0068 5.1 26.3687 5.1H29.433C29.8695 5.1 30.1081 5.25281 30.2265 5.48693C30.3508 5.73277 30.3566 6.0939 30.2603 6.53628Z" fill="white" stroke="black" stroke-width="0.2"/>
</svg>
